<svg xmlns="http://www.w3.org/2000/svg" viewBox="0 0 512 512" role="img" aria-label="DeepSeek">
  <rect width="512" height="512" rx="88" fill="#fff"/>
  <path fill="#4f6df5" d="M414 81c10-4 28-8 39-2 4 20-4 39-20 51 26 4 51-2 70-19 8 30-4 65-31 87-19 16-43 23-67 22-5 31-20 65-46 98-53 67-135 106-213 91C72 395 20 337 14 263 8 185 58 113 137 89c46-14 94-7 130 17 44-12 88-21 125-8-24 11-38 31-29 50 12 24 44 32 70 24-24-20-32-62-19-91ZM74 186c-23 59 8 124 67 147 21 8 42 11 63 8-44-47-80-103-130-155Zm252 96c20 14 47 15 70 4-4-27-20-52-45-66-16 18-25 39-25 62Zm-34-26a11 11 0 1 0 0-22 11 11 0 0 0 0 22Zm-33-30a11 11 0 1 0 0-22 11 11 0 0 0 0 22Z"/>
</svg>
